# Blender v3.1.2 OBJ File: ''
# www.blender.org
mtllib Test.mtl
o Cube
v 1.000000 1.000000 -1.000000
v 1.000000 -1.000000 -1.000000
v 1.000000 1.000000 1.000000
v 1.000000 -1.000000 1.000000
v -1.000000 1.000000 -1.000000
v -1.000000 -1.000000 -1.000000
v -1.000000 1.000000 1.000000
v -1.000000 -1.000000 1.000000
v 0.000000 0.898573 -1.000000
v 0.195090 0.898573 -0.980785
v 0.382683 0.898573 -0.923880
v 0.555570 0.898573 -0.831470
v 0.707107 0.898573 -0.707107
v 0.831470 0.898573 -0.555570
v 0.923880 0.898573 -0.382683
v 0.980785 0.898573 -0.195090
v 1.000000 0.898573 0.000000
v 0.980785 0.898573 0.195090
v 0.923880 0.898573 0.382683
v 0.831470 0.898573 0.555570
v 0.707107 0.898573 0.707107
v 0.555570 0.898573 0.831470
v 0.382683 0.898573 0.923880
v 0.195090 0.898573 0.980785
v -0.000000 0.898573 1.000000
v -0.195090 0.898573 0.980785
v -0.382683 0.898573 0.923880
v -0.555570 0.898573 0.831470
v -0.707107 0.898573 0.707107
v -0.831469 0.898573 0.555570
v -0.923880 0.898573 0.382684
v -0.980785 0.898573 0.195090
v -1.000000 0.898573 -0.000000
v -0.980785 0.898573 -0.195090
v -0.923879 0.898573 -0.382684
v -0.831470 0.898573 -0.555570
v -0.707107 0.898573 -0.707107
v -0.555570 0.898573 -0.831470
v -0.382683 0.898573 -0.923880
v -0.195090 0.898573 -0.980785
v 0.000000 2.898573 0.000000
v -0.839539 -0.012179 -0.990095
v -0.835400 0.182658 -0.968863
v -0.831805 0.369619 -0.910021
v -0.828892 0.541518 -0.815831
v -0.826775 0.691749 -0.689913
v -0.825533 0.814539 -0.537105
v -0.825215 0.905170 -0.363279
v -0.825834 0.960159 -0.175116
v -0.827364 0.977392 0.020154
v -0.829747 0.956206 0.215025
v -0.832893 0.897417 0.402010
v -0.836679 0.803284 0.573923
v -0.840961 0.677424 0.724157
v -0.845574 0.524673 0.846939
v -0.850340 0.350902 0.937550
v -0.855077 0.162788 0.992508
v -0.859602 -0.032438 1.009702
v -0.863741 -0.227275 0.988470
v -0.867336 -0.414235 0.929628
v -0.870248 -0.586134 0.835438
v -0.872366 -0.736365 0.709519
v -0.873608 -0.859156 0.556711
v -0.873926 -0.949787 0.382885
v -0.873308 -1.004775 0.194722
v -0.871777 -1.022008 -0.000547
v -0.869394 -1.000823 -0.195419
v -0.866248 -0.942034 -0.382404
v -0.862462 -0.847901 -0.554316
v -0.858180 -0.722040 -0.704550
v -0.853567 -0.569289 -0.827332
v -0.848801 -0.395518 -0.917943
v -0.844064 -0.207405 -0.972902
v -2.848977 0.022308 -0.009803
v -0.984258 -0.012179 0.860511
v -0.963653 0.182658 0.853926
v -0.905630 0.369619 0.843500
v -0.812421 0.541518 0.829635
v -0.687607 0.691749 0.812862
v -0.535983 0.814539 0.793827
v -0.363378 0.905170 0.773261
v -0.176425 0.960159 0.751954
v 0.017694 0.977392 0.730725
v 0.211516 0.956206 0.710390
v 0.397594 0.897417 0.691730
v 0.568777 0.803284 0.675463
v 0.718487 0.677424 0.662214
v 0.840970 0.524673 0.652491
v 0.931520 0.350902 0.646669
v 0.986656 0.162788 0.644971
v 1.004259 -0.032438 0.647462
v 0.983654 -0.227275 0.654047
v 0.925632 -0.414235 0.664472
v 0.832422 -0.586134 0.678338
v 0.707608 -0.736365 0.695110
v 0.555985 -0.859156 0.714146
v 0.383380 -0.949787 0.734712
v 0.196426 -1.004775 0.756019
v 0.002308 -1.022008 0.777248
v -0.191515 -1.000823 0.797582
v -0.377593 -0.942034 0.816242
v -0.548776 -0.847901 0.832509
v -0.698486 -0.722040 0.845758
v -0.820969 -0.569289 0.855481
v -0.911518 -0.395518 0.861304
v -0.966654 -0.207405 0.863002
v 0.223457 0.022308 2.742062
vt 0.197361 0.481626
vt 0.000000 0.277433
vt 0.197361 0.283349
vt 0.203955 0.000000
vt 0.009573 0.169130
vt 0.003443 0.000000
vt 0.210086 0.169130
vt 0.000000 0.277433
vt 0.210086 0.000403
vt 0.410706 0.200645
vt 0.210086 0.201048
vt 0.410733 0.402048
vt 0.210085 0.201048
vt 0.410733 0.201295
vt 0.210086 0.402818
vt 0.409309 0.602790
vt 0.210086 0.603561
vt 0.060812 0.519767
vt 0.153119 0.701866
vt 0.043242 0.527485
vt 0.026842 0.534819
vt 0.012241 0.541489
vt 0.000000 0.547237
vt 0.409309 0.762606
vt 0.553318 0.601919
vt 0.422784 0.768401
vt 0.438409 0.774961
vt 0.455584 0.782033
vt 0.473648 0.789346
vt 0.491908 0.796620
vt 0.509663 0.803574
vt 0.526228 0.809941
vt 0.540969 0.815477
vt 0.553318 0.819968
vt 0.610200 0.393040
vt 0.627680 0.272226
vt 0.627680 0.400919
vt 0.210085 0.760208
vt 0.355560 0.603560
vt 0.222373 0.763829
vt 0.237117 0.768523
vt 0.253750 0.774108
vt 0.271633 0.780370
vt 0.290079 0.787068
vt 0.308379 0.793945
vt 0.325830 0.800737
vt 0.341761 0.807182
vt 0.355560 0.813034
vt 0.203705 0.481627
vt 0.203705 0.621563
vt 0.185088 0.487120
vt 0.168007 0.496100
vt 0.153119 0.508221
vt 0.153119 0.481626
vt 0.142458 0.485691
vt 0.129153 0.490980
vt 0.113715 0.497287
vt 0.096738 0.504373
vt 0.587934 0.364666
vt 0.446890 0.378624
vt 0.432998 0.237302
vt 0.078875 0.511963
vt 0.808977 0.824598
vt 0.878021 0.623434
vt 0.827656 0.830608
vt 0.845848 0.835909
vt 0.862854 0.840297
vt 0.878021 0.843601
vt 0.754536 0.581237
vt 0.888298 0.402048
vt 0.766157 0.587148
vt 0.780495 0.593278
vt 0.796997 0.599391
vt 0.815030 0.605251
vt 0.833902 0.610634
vt 0.852886 0.615332
vt 0.871253 0.619166
vt 0.888298 0.621987
vt 0.754992 0.001755
vt 0.754992 0.220584
vt 0.739100 0.000000
vt 0.721549 0.000577
vt 0.703013 0.003463
vt 0.684204 0.008549
vt 0.665845 0.015638
vt 0.648642 0.024458
vt 0.633256 0.034670
vt 0.620278 0.045881
vt 0.610206 0.057662
vt 1.000000 0.623434
vt 1.000000 0.832334
vt 0.982639 0.627624
vt 0.964062 0.632198
vt 0.944984 0.636980
vt 0.926137 0.641787
vt 0.908247 0.646432
vt 0.892000 0.650739
vt 0.878021 0.654541
vt 0.743453 0.798292
vt 0.757125 0.804697
vt 0.773021 0.811388
vt 0.520281 0.000000
vt 0.587937 0.036209
vt 0.574043 0.177539
vt 0.790529 0.818108
vt 0.829600 0.196287
vt 0.885924 0.000000
vt 0.848822 0.199494
vt 0.867841 0.199612
vt 0.885924 0.196635
vt 0.608862 0.800290
vt 0.743454 0.623434
vt 0.622492 0.807333
vt 0.638356 0.814498
vt 0.655847 0.821508
vt 0.674291 0.828096
vt 0.692981 0.834007
vt 0.711197 0.839014
vt 0.728239 0.842925
vt 0.743454 0.845590
vt 0.608862 0.570627
vt 0.754536 0.402048
vt 0.620410 0.577040
vt 0.634579 0.583926
vt 0.650825 0.591021
vt 0.668523 0.598052
vt 0.686995 0.604747
vt 0.705529 0.610852
vt 0.723413 0.616129
vt 0.739961 0.620378
vt 0.754536 0.623434
vt 0.118708 0.701866
vt 0.118708 0.916963
vt 0.104784 0.706678
vt 0.088751 0.712321
vt 0.071228 0.718578
vt 0.052887 0.725209
vt 0.034433 0.731958
vt 0.016575 0.738568
vt 0.000000 0.744783
vt 0.754992 0.141983
vt 0.764968 0.156672
vt 0.777963 0.169917
vt 0.793476 0.181208
vt 0.518913 0.402053
vt 0.608862 0.511850
vt 0.499258 0.601914
vt 0.810912 0.190112
vt 0.000000 0.475711
vt 0.200513 0.277433
vt 0.410706 0.000000
vt 0.210085 0.401801
vt 0.409309 0.402048
vt 0.574043 0.223343
vt 0.587934 0.237259
vt 0.598849 0.253623
vt 0.606367 0.271808
vt 0.610200 0.291114
vt 0.610200 0.310799
vt 0.606367 0.330106
vt 0.598849 0.348295
vt 0.574043 0.378589
vt 0.557708 0.389530
vt 0.539557 0.397068
vt 0.520289 0.400914
vt 0.500643 0.400919
vt 0.481375 0.397084
vt 0.463225 0.389556
vt 0.432998 0.364708
vt 0.422083 0.348344
vt 0.414565 0.330159
vt 0.410733 0.310854
vt 0.410733 0.291169
vt 0.414565 0.271861
vt 0.422083 0.253672
vt 0.446890 0.223378
vt 0.463225 0.212437
vt 0.481375 0.204899
vt 0.500643 0.201054
vt 0.520289 0.201048
vt 0.539557 0.204883
vt 0.557708 0.212411
vt 0.557706 0.188481
vt 0.539552 0.196019
vt 0.520281 0.199865
vt 0.500632 0.199871
vt 0.481360 0.196036
vt 0.463207 0.188509
vt 0.446869 0.177577
vt 0.432975 0.163662
vt 0.422059 0.147298
vt 0.414539 0.129113
vt 0.410706 0.109808
vt 0.410706 0.090123
vt 0.414539 0.070815
vt 0.422059 0.052626
vt 0.432975 0.036255
vt 0.446869 0.022332
vt 0.463207 0.011390
vt 0.481360 0.003852
vt 0.500632 0.000006
vt 0.539552 0.003835
vt 0.557706 0.011362
vt 0.574043 0.022294
vt 0.598854 0.052573
vt 0.606373 0.070758
vt 0.610206 0.090063
vt 0.610206 0.109748
vt 0.606373 0.129056
vt 0.598854 0.147245
vt 0.587937 0.163616
vt 0.479982 0.598069
vt 0.461824 0.590532
vt 0.445482 0.579591
vt 0.431584 0.565669
vt 0.420665 0.549299
vt 0.413143 0.531110
vt 0.409309 0.511802
vt 0.409309 0.492117
vt 0.413143 0.472811
vt 0.420665 0.454627
vt 0.431584 0.438262
vt 0.445482 0.424345
vt 0.461824 0.413413
vt 0.479982 0.405884
vt 0.499258 0.402048
vt 0.538189 0.405898
vt 0.556347 0.413435
vt 0.572689 0.424376
vt 0.586587 0.438298
vt 0.597506 0.454668
vt 0.605028 0.472857
vt 0.608862 0.492165
vt 0.605028 0.531156
vt 0.597506 0.549340
vt 0.586587 0.565705
vt 0.572689 0.579621
vt 0.556347 0.590554
vt 0.538189 0.598083
vt 0.518913 0.601919
vn 0.0000 1.0000 0.0000
vn 0.0000 0.0000 1.0000
vn -1.0000 0.0000 0.0000
vn 0.0000 -1.0000 0.0000
vn 1.0000 0.0000 0.0000
vn 0.0000 0.0000 -1.0000
vn 0.0878 0.4455 -0.8910
vn 0.2599 0.4455 -0.8567
vn 0.4220 0.4455 -0.7896
vn 0.5680 0.4455 -0.6921
vn 0.6921 0.4455 -0.5680
vn 0.7896 0.4455 -0.4220
vn 0.8567 0.4455 -0.2599
vn 0.8910 0.4455 -0.0878
vn 0.8910 0.4455 0.0878
vn 0.8567 0.4455 0.2599
vn 0.7896 0.4455 0.4220
vn 0.6921 0.4455 0.5680
vn 0.5680 0.4455 0.6921
vn 0.4220 0.4455 0.7896
vn 0.2599 0.4455 0.8567
vn 0.0878 0.4455 0.8910
vn -0.0878 0.4455 0.8910
vn -0.2599 0.4455 0.8567
vn -0.4220 0.4455 0.7896
vn -0.5680 0.4455 0.6921
vn -0.6921 0.4455 0.5680
vn -0.7896 0.4455 0.4220
vn -0.8567 0.4455 0.2599
vn -0.8910 0.4455 0.0878
vn -0.8910 0.4455 -0.0878
vn -0.8567 0.4455 -0.2599
vn -0.7896 0.4455 -0.4220
vn -0.6921 0.4455 -0.5680
vn -0.5680 0.4455 -0.6921
vn -0.4220 0.4455 -0.7896
vn -0.2599 0.4455 -0.8567
vn -0.0878 0.4455 -0.8910
vn -0.4345 0.1067 -0.8943
vn -0.4310 0.2784 -0.8583
vn -0.4281 0.4398 -0.7895
vn -0.4258 0.5847 -0.6905
vn -0.4243 0.7076 -0.5651
vn -0.4236 0.8035 -0.4182
vn -0.4237 0.8691 -0.2554
vn -0.4247 0.9015 -0.0829
vn -0.4265 0.8998 0.0926
vn -0.4289 0.8638 0.2644
vn -0.4321 0.7950 0.4258
vn -0.4357 0.6960 0.5707
vn -0.4397 0.5707 0.6935
vn -0.4439 0.4238 0.7895
vn -0.4482 0.2611 0.8550
vn -0.4523 0.0886 0.8874
vn -0.4562 -0.0868 0.8856
vn -0.4597 -0.2586 0.8496
vn -0.4626 -0.4200 0.7808
vn -0.4649 -0.5649 0.6818
vn -0.4664 -0.6877 0.5564
vn -0.4671 -0.7837 0.4095
vn -0.4670 -0.8492 0.2466
vn -0.4660 -0.8817 0.0742
vn -0.4643 -0.8799 -0.1013
vn -0.4618 -0.8439 -0.2731
vn -0.4587 -0.7751 -0.4345
vn -0.4550 -0.6762 -0.5794
vn -0.4510 -0.5508 -0.7022
vn -0.4468 -0.4040 -0.7982
vn 0.9997 -0.0223 0.0098
vn -0.4425 -0.2412 -0.8637
vn -0.4384 -0.0688 -0.8962
vn -0.8376 0.1067 0.5357
vn -0.8023 0.2784 0.5281
vn -0.7342 0.4398 0.5171
vn -0.6362 0.5847 0.5033
vn -0.5118 0.7076 0.4872
vn -0.3660 0.8035 0.4694
vn -0.2043 0.8691 0.4506
vn -0.0328 0.9015 0.4315
vn 0.1416 0.8998 0.4128
vn 0.3125 0.8638 0.3952
vn 0.4732 0.7950 0.3795
vn 0.6176 0.6960 0.3662
vn 0.7400 0.5707 0.3559
vn 0.8358 0.4238 0.3489
vn 0.9014 0.2611 0.3455
vn 0.9341 0.0886 0.3459
vn 0.9327 -0.0868 0.3500
vn 0.8974 -0.2586 0.3576
vn 0.8293 -0.4200 0.3685
vn 0.7313 -0.5649 0.3823
vn 0.6069 -0.6877 0.3984
vn 0.4611 -0.7837 0.4162
vn 0.2994 -0.8492 0.4351
vn 0.1279 -0.8817 0.4542
vn -0.0466 -0.8799 0.4729
vn -0.2174 -0.8439 0.4904
vn -0.3781 -0.7751 0.5062
vn -0.5225 -0.6762 0.5194
vn -0.6449 -0.5508 0.5298
vn -0.7407 -0.4040 0.5368
vn -0.1067 -0.0223 -0.9940
vn -0.8063 -0.2412 0.5401
vn -0.8390 -0.0688 0.5398
usemtl Material
s off
f 5/1/1 3/2/1 1/3/1
f 3/4/2 8/5/2 4/6/2
f 7/7/3 6/8/3 8/5/3
f 2/9/4 8/10/4 6/11/4
f 1/12/5 4/13/5 2/14/5
f 5/15/6 2/16/6 6/17/6
f 9/18/7 41/19/7 10/20/7
f 10/20/8 41/19/8 11/21/8
f 11/21/9 41/19/9 12/22/9
f 12/22/10 41/19/10 13/23/10
f 13/24/11 41/25/11 14/26/11
f 14/26/12 41/25/12 15/27/12
f 15/27/13 41/25/13 16/28/13
f 16/28/14 41/25/14 17/29/14
f 17/29/15 41/25/15 18/30/15
f 18/30/16 41/25/16 19/31/16
f 19/31/17 41/25/17 20/32/17
f 20/32/18 41/25/18 21/33/18
f 21/33/19 41/25/19 22/34/19
f 22/35/20 41/36/20 23/37/20
f 23/38/21 41/39/21 24/40/21
f 24/40/22 41/39/22 25/41/22
f 25/41/23 41/39/23 26/42/23
f 26/42/24 41/39/24 27/43/24
f 27/43/25 41/39/25 28/44/25
f 28/44/26 41/39/26 29/45/26
f 29/45/27 41/39/27 30/46/27
f 30/46/28 41/39/28 31/47/28
f 31/47/29 41/39/29 32/48/29
f 32/49/30 41/50/30 33/51/30
f 33/51/31 41/50/31 34/52/31
f 34/52/32 41/50/32 35/53/32
f 35/54/33 41/19/33 36/55/33
f 36/55/34 41/19/34 37/56/34
f 37/56/35 41/19/35 38/57/35
f 38/57/36 41/19/36 39/58/36
f 16/59/4 24/60/4 32/61/4
f 39/58/37 41/19/37 40/62/37
f 40/62/38 41/19/38 9/18/38
f 42/63/39 74/64/39 43/65/39
f 43/65/40 74/64/40 44/66/40
f 44/66/41 74/64/41 45/67/41
f 45/67/42 74/64/42 46/68/42
f 46/69/43 74/70/43 47/71/43
f 47/71/44 74/70/44 48/72/44
f 48/72/45 74/70/45 49/73/45
f 49/73/46 74/70/46 50/74/46
f 50/74/47 74/70/47 51/75/47
f 51/75/48 74/70/48 52/76/48
f 52/76/49 74/70/49 53/77/49
f 53/77/50 74/70/50 54/78/50
f 54/79/51 74/80/51 55/81/51
f 55/81/52 74/80/52 56/82/52
f 56/82/53 74/80/53 57/83/53
f 57/83/54 74/80/54 58/84/54
f 58/84/55 74/80/55 59/85/55
f 59/85/56 74/80/56 60/86/56
f 60/86/57 74/80/57 61/87/57
f 61/87/58 74/80/58 62/88/58
f 62/88/59 74/80/59 63/89/59
f 63/90/60 74/91/60 64/92/60
f 64/92/61 74/91/61 65/93/61
f 65/93/62 74/91/62 66/94/62
f 66/94/63 74/91/63 67/95/63
f 67/95/64 74/91/64 68/96/64
f 68/96/65 74/91/65 69/97/65
f 69/97/66 74/91/66 70/98/66
f 70/99/67 74/64/67 71/100/67
f 71/100/68 74/64/68 72/101/68
f 61/102/69 65/103/69 73/104/69
f 72/101/70 74/64/70 73/105/70
f 73/105/71 74/64/71 42/63/71
f 75/106/72 107/107/72 76/108/72
f 76/108/73 107/107/73 77/109/73
f 77/109/74 107/107/74 78/110/74
f 78/111/75 107/112/75 79/113/75
f 79/113/76 107/112/76 80/114/76
f 80/114/77 107/112/77 81/115/77
f 81/115/78 107/112/78 82/116/78
f 82/116/79 107/112/79 83/117/79
f 83/117/80 107/112/80 84/118/80
f 84/118/81 107/112/81 85/119/81
f 85/119/82 107/112/82 86/120/82
f 86/121/83 107/122/83 87/123/83
f 87/123/84 107/122/84 88/124/84
f 88/124/85 107/122/85 89/125/85
f 89/125/86 107/122/86 90/126/86
f 90/126/87 107/122/87 91/127/87
f 91/127/88 107/122/88 92/128/88
f 92/128/89 107/122/89 93/129/89
f 93/129/90 107/122/90 94/130/90
f 94/130/91 107/122/91 95/131/91
f 95/132/92 107/133/92 96/134/92
f 96/134/93 107/133/93 97/135/93
f 97/135/94 107/133/94 98/136/94
f 98/136/95 107/133/95 99/137/95
f 99/137/96 107/133/96 100/138/96
f 100/138/97 107/133/97 101/139/97
f 101/139/98 107/133/98 102/140/98
f 102/141/99 107/107/99 103/142/99
f 103/142/100 107/107/100 104/143/100
f 104/143/101 107/107/101 105/144/101
f 90/145/102 98/146/102 106/147/102
f 105/144/103 107/107/103 106/148/103
f 106/148/104 107/107/104 75/106/104
f 5/1/1 7/149/1 3/2/1
f 3/4/2 7/7/2 8/5/2
f 7/7/3 5/150/3 6/8/3
f 2/9/4 4/151/4 8/10/4
f 1/12/5 3/152/5 4/13/5
f 5/15/6 1/153/6 2/16/6
f 40/154/4 9/155/4 10/156/4
f 10/156/4 11/157/4 12/158/4
f 12/158/4 13/159/4 14/160/4
f 14/160/4 15/161/4 16/59/4
f 16/59/4 17/162/4 18/163/4
f 18/163/4 19/164/4 20/165/4
f 20/165/4 21/166/4 22/167/4
f 22/167/4 23/168/4 24/60/4
f 24/60/4 25/169/4 26/170/4
f 26/170/4 27/171/4 28/172/4
f 28/172/4 29/173/4 30/174/4
f 30/174/4 31/175/4 32/61/4
f 32/61/4 33/176/4 34/177/4
f 34/177/4 35/178/4 32/61/4
f 35/178/4 36/179/4 32/61/4
f 36/179/4 37/180/4 38/181/4
f 38/181/4 39/182/4 36/179/4
f 39/182/4 40/154/4 36/179/4
f 40/154/4 10/156/4 16/59/4
f 10/156/4 12/158/4 16/59/4
f 12/158/4 14/160/4 16/59/4
f 16/59/4 18/163/4 20/165/4
f 20/165/4 22/167/4 16/59/4
f 22/167/4 24/60/4 16/59/4
f 24/60/4 26/170/4 32/61/4
f 26/170/4 28/172/4 32/61/4
f 28/172/4 30/174/4 32/61/4
f 32/61/4 36/179/4 40/154/4
f 40/154/4 16/59/4 32/61/4
f 73/104/69 42/183/69 43/184/69
f 43/184/69 44/185/69 45/186/69
f 45/186/69 46/187/69 47/188/69
f 47/188/69 48/189/69 45/186/69
f 48/189/69 49/190/69 45/186/69
f 49/190/69 50/191/69 51/192/69
f 51/192/69 52/193/69 49/190/69
f 52/193/69 53/194/69 49/190/69
f 53/194/69 54/195/69 55/196/69
f 55/196/69 56/197/69 53/194/69
f 56/197/69 57/198/69 53/194/69
f 57/198/69 58/199/69 61/102/69
f 58/199/69 59/200/69 61/102/69
f 59/200/69 60/201/69 61/102/69
f 61/102/69 62/202/69 63/203/69
f 63/203/69 64/204/69 61/102/69
f 64/204/69 65/103/69 61/102/69
f 65/103/69 66/205/69 67/206/69
f 67/206/69 68/207/69 69/208/69
f 69/208/69 70/209/69 71/210/69
f 71/210/69 72/211/69 73/104/69
f 73/104/69 43/184/69 45/186/69
f 65/103/69 67/206/69 73/104/69
f 67/206/69 69/208/69 73/104/69
f 69/208/69 71/210/69 73/104/69
f 73/104/69 45/186/69 57/198/69
f 45/186/69 49/190/69 57/198/69
f 49/190/69 53/194/69 57/198/69
f 57/198/69 61/102/69 73/104/69
f 106/147/102 75/212/102 76/213/102
f 76/213/102 77/214/102 106/147/102
f 77/214/102 78/215/102 106/147/102
f 78/215/102 79/216/102 80/217/102
f 80/217/102 81/218/102 78/215/102
f 81/218/102 82/219/102 78/215/102
f 82/219/102 83/220/102 84/221/102
f 84/221/102 85/222/102 82/219/102
f 85/222/102 86/223/102 82/219/102
f 86/223/102 87/224/102 90/145/102
f 87/224/102 88/225/102 90/145/102
f 88/225/102 89/226/102 90/145/102
f 90/145/102 91/227/102 92/228/102
f 92/228/102 93/229/102 90/145/102
f 93/229/102 94/230/102 90/145/102
f 94/230/102 95/231/102 96/232/102
f 96/232/102 97/233/102 98/146/102
f 98/146/102 99/234/102 100/235/102
f 100/235/102 101/236/102 102/237/102
f 102/237/102 103/238/102 106/147/102
f 103/238/102 104/239/102 106/147/102
f 104/239/102 105/240/102 106/147/102
f 94/230/102 96/232/102 98/146/102
f 98/146/102 100/235/102 106/147/102
f 100/235/102 102/237/102 106/147/102
f 106/147/102 78/215/102 82/219/102
f 82/219/102 86/223/102 90/145/102
f 90/145/102 94/230/102 98/146/102
f 106/147/102 82/219/102 90/145/102
