# Blender v3.1.2 OBJ File: ''
# www.blender.org
mtllib rock.mtl
o å¹³é¢
v -0.240391 0.097087 0.126495
v 0.001079 0.097087 0.126495
v 0.001079 0.166959 0.000000
v -0.240391 0.166959 0.000000
v -0.502674 -0.000000 0.126495
v -0.499460 0.097087 0.126495
v -0.499460 0.097087 0.000000
v -0.502674 0.000000 0.000000
v 0.250810 0.097087 0.126495
v 0.500540 0.097087 0.126495
v 0.500540 0.097087 0.000000
v 0.250810 0.166959 0.000000
v 0.001079 0.097087 -0.125000
v 0.250810 0.097087 -0.125000
v 0.250810 0.000000 -0.250000
v 0.001079 0.000000 -0.250000
v -0.499460 0.097087 -0.125000
v -0.240391 0.097087 -0.125000
v -0.240391 0.000000 -0.250000
v -0.499460 0.000000 -0.250000
v 0.500540 0.097087 -0.125000
v 0.500540 0.000000 -0.250000
v -0.502674 0.000000 -0.125000
v -0.502674 0.000000 -0.250000
v 0.561068 0.000000 -0.250000
v 0.561068 0.000000 -0.125000
v 0.561068 0.000000 0.000000
v 0.561068 -0.000000 0.126495
v 0.561068 -0.000000 0.252990
v 0.500540 -0.000000 0.252990
v 0.250810 -0.000000 0.252990
v 0.001079 -0.000000 0.252990
v -0.240391 -0.000000 0.252990
v -0.499460 -0.000000 0.252990
v -0.502674 -0.000000 0.252990
vt 0.500540 0.436752
vt 0.379804 0.500000
vt 0.379804 0.436752
vt 0.250270 0.436752
vt 0.134730 0.500000
vt 0.134730 0.436752
vt 0.625405 0.436752
vt 0.750270 0.500000
vt 0.625405 0.500000
vt 0.250270 0.500000
vt 0.500540 0.500000
vt 0.625405 0.562500
vt 0.500540 0.625000
vt 0.500540 0.562500
vt 0.379804 0.562500
vt 0.250270 0.625000
vt 0.250270 0.562500
vt 0.750270 0.562500
vt 0.625405 0.625000
vt 0.134730 0.562500
vt 0.134730 0.625000
vt 0.379804 0.625000
vt 0.869352 0.500000
vt 0.625405 0.373505
vt 0.869352 0.562500
vt 0.750270 0.625000
vt 0.869352 0.436752
vt 0.750270 0.436752
vt 0.750270 0.373505
vt 0.500540 0.373505
vt 0.379804 0.373505
vt 0.250270 0.373505
vt 0.134730 0.373505
vt 0.869352 0.625000
vt 0.869352 0.373505
vn 0.0000 0.8753 0.4835
vn -0.9995 0.0331 0.0000
vn 0.1750 0.9219 0.3456
vn 0.0807 0.9839 0.1593
vn 0.2379 0.8502 0.4696
vn -0.1709 0.9210 0.3501
vn -0.0755 0.9851 0.1547
vn 0.0000 1.0000 0.0000
vn 0.0000 0.7898 -0.6134
vn 0.0000 0.0000 0.0000
vn 0.0000 -1.0000 -0.0000
vn 0.7849 0.4893 -0.3801
vn 0.8486 0.5290 0.0000
vn 0.0000 0.8729 -0.4879
vn 0.0799 0.9840 -0.1595
vn 0.1754 0.9201 -0.3503
vn 0.2373 0.8480 -0.4740
vn -0.0747 0.9851 -0.1549
vn -0.1712 0.9191 -0.3549
vn 0.7862 0.4902 0.3762
vn 0.0000 0.7933 0.6089
vn -0.2298 0.8519 0.4706
vn -0.9991 0.0331 -0.0257
vn -0.2292 0.8497 -0.4749
vn -0.9991 0.0331 0.0254
usemtl None
s 1
f 2/1/1 4/2/1 1/3/1
f 6/4/2 8/5/2 5/6/2
f 9/7/3 11/8/4 12/9/5
f 1/3/6 7/10/7 6/4/8
f 9/7/1 3/11/1 2/1/1
f 14/12/9 16/13/9 13/14/9
f 18/15/9 20/16/9 17/17/9
f 21/18/9 15/19/9 14/12/9
f 23/20/8 20/16/8 24/21/8
f 8/5/10 23/20/10 5/6/10
f 13/14/9 19/22/9 18/15/9
f 15/19/11 27/23/11 31/24/11
f 26/25/12 22/26/12 21/18/12
f 28/27/13 11/8/13 10/28/13
f 27/23/13 21/18/13 11/8/13
f 3/11/14 18/15/14 4/2/14
f 7/10/2 23/20/2 8/5/2
f 11/8/15 14/12/16 12/9/17
f 7/10/18 18/15/19 17/17/8
f 12/9/14 13/14/14 3/11/14
f 30/29/20 28/27/20 10/28/20
f 31/24/21 2/1/21 32/30/21
f 33/31/21 6/4/21 34/32/21
f 30/29/21 9/7/21 31/24/21
f 32/30/21 1/3/21 33/31/21
f 2/1/1 3/11/1 4/2/1
f 6/4/2 7/10/2 8/5/2
f 9/7/3 10/28/8 11/8/4
f 1/3/6 4/2/22 7/10/7
f 9/7/1 12/9/1 3/11/1
f 14/12/9 15/19/9 16/13/9
f 18/15/9 19/22/9 20/16/9
f 21/18/9 22/26/9 15/19/9
f 23/20/23 17/17/23 20/16/23
f 13/14/9 16/13/9 19/22/9
f 19/22/11 16/13/11 33/31/11
f 16/13/11 15/19/11 32/30/11
f 19/22/11 33/31/11 5/6/11
f 23/20/11 20/16/11 19/22/11
f 34/32/11 35/33/11 5/6/11
f 5/6/11 23/20/11 19/22/11
f 15/19/11 22/26/11 26/25/11
f 22/26/11 25/34/11 26/25/11
f 15/19/11 26/25/11 27/23/11
f 33/31/11 34/32/11 5/6/11
f 30/29/11 31/24/11 28/27/11
f 31/24/11 32/30/11 15/19/11
f 32/30/11 33/31/11 16/13/11
f 27/23/11 28/27/11 31/24/11
f 28/27/11 29/35/11 30/29/11
f 28/27/13 27/23/13 11/8/13
f 27/23/13 26/25/13 21/18/13
f 3/11/14 13/14/14 18/15/14
f 7/10/2 17/17/2 23/20/2
f 11/8/15 21/18/8 14/12/16
f 7/10/18 4/2/24 18/15/19
f 12/9/14 14/12/14 13/14/14
f 31/24/21 9/7/21 2/1/21
f 33/31/21 1/3/21 6/4/21
f 30/29/21 10/28/21 9/7/21
f 34/32/25 6/4/25 5/6/25
f 32/30/21 2/1/21 1/3/21
