{
    "asset" : {
        "generator" : "Khronos glTF Blender I/O v1.8.19",
        "version" : "2.0"
    },
    "scene" : 0,
    "scenes" : [
        {
            "name" : "Scene",
            "nodes" : [
                6
            ]
        }
    ],
    "nodes" : [
        {
            "name" : "Bone.004",
            "rotation" : [
                -3.970466940254533e-23,
                -5.329070941717225e-15,
                -9.793818452627848e-22,
                1
            ],
            "translation" : [
                3.232156867880098e-20,
                2.9983386993408203,
                0
            ]
        },
        {
            "children" : [
                0
            ],
            "name" : "Bone.003",
            "rotation" : [
                1.4210854715202004e-14,
                -7.105428204633949e-15,
                2.3202416182112426e-22,
                1
            ],
            "translation" : [
                1.2546675531204324e-20,
                2.9912829399108887,
                -1.1368683772161603e-13
            ]
        },
        {
            "children" : [
                1
            ],
            "name" : "Bone.002",
            "rotation" : [
                4.263256414560601e-14,
                -4.085620730620576e-14,
                3.006387936323979e-21,
                1
            ],
            "translation" : [
                7.273478289948333e-21,
                2.8784048557281494,
                -6.706953243652836e-14
            ]
        },
        {
            "children" : [
                2
            ],
            "name" : "Bone.001",
            "rotation" : [
                -3.970466940254533e-23,
                -4.694054086298448e-22,
                -2.8206858888058244e-22,
                1
            ],
            "translation" : [
                -9.065899513581183e-22,
                1.9308570623397827,
                -5.684341886080802e-14
            ]
        },
        {
            "children" : [
                3
            ],
            "name" : "Bone",
            "rotation" : [
                1.65143518415789e-07,
                2.8370715554615344e-08,
                4.2869320018758955e-15,
                1
            ]
        },
        {
            "mesh" : 0,
            "name" : "\u7acb\u65b9\u4f53",
            "skin" : 0
        },
        {
            "children" : [
                5,
                4
            ],
            "name" : "\u30a2\u30fc\u30de\u30c1\u30e5\u30a2"
        }
    ],
    "animations" : [
        {
            "channels" : [
                {
                    "sampler" : 0,
                    "target" : {
                        "node" : 1,
                        "path" : "translation"
                    }
                },
                {
                    "sampler" : 1,
                    "target" : {
                        "node" : 1,
                        "path" : "rotation"
                    }
                },
                {
                    "sampler" : 2,
                    "target" : {
                        "node" : 1,
                        "path" : "scale"
                    }
                }
            ],
            "name" : "\u30a2\u30fc\u30de\u30c1\u30e5\u30a2Action",
            "samplers" : [
                {
                    "input" : 7,
                    "interpolation" : "LINEAR",
                    "output" : 8
                },
                {
                    "input" : 7,
                    "interpolation" : "LINEAR",
                    "output" : 9
                },
                {
                    "input" : 7,
                    "interpolation" : "LINEAR",
                    "output" : 10
                }
            ]
        }
    ],
    "materials" : [
        {
            "doubleSided" : true,
            "name" : "\u30de\u30c6\u30ea\u30a2\u30eb",
            "pbrMetallicRoughness" : {
                "baseColorTexture" : {
                    "index" : 0
                },
                "metallicFactor" : 0,
                "roughnessFactor" : 0.5
            }
        }
    ],
    "meshes" : [
        {
            "name" : "\u7acb\u65b9\u4f53",
            "primitives" : [
                {
                    "attributes" : {
                        "POSITION" : 0,
                        "NORMAL" : 1,
                        "TEXCOORD_0" : 2,
                        "JOINTS_0" : 3,
                        "WEIGHTS_0" : 4
                    },
                    "indices" : 5,
                    "material" : 0
                }
            ]
        }
    ],
    "textures" : [
        {
            "sampler" : 0,
            "source" : 0
        }
    ],
    "images" : [
        {
            "mimeType" : "image/png",
            "name" : "se.png",
            "uri" : "se.png"
        }
    ],
    "skins" : [
        {
            "inverseBindMatrices" : 6,
            "joints" : [
                4,
                3,
                2,
                1,
                0
            ],
            "name" : "\u30a2\u30fc\u30de\u30c1\u30e5\u30a2"
        }
    ],
    "accessors" : [
        {
            "bufferView" : 0,
            "componentType" : 5126,
            "count" : 58,
            "max" : [
                1,
                10.775524139404297,
                1
            ],
            "min" : [
                -1,
                -7.574785243491533e-09,
                -1.0000001192092896
            ],
            "type" : "VEC3"
        },
        {
            "bufferView" : 1,
            "componentType" : 5126,
            "count" : 58,
            "type" : "VEC3"
        },
        {
            "bufferView" : 2,
            "componentType" : 5126,
            "count" : 58,
            "type" : "VEC2"
        },
        {
            "bufferView" : 3,
            "componentType" : 5121,
            "count" : 58,
            "type" : "VEC4"
        },
        {
            "bufferView" : 4,
            "componentType" : 5126,
            "count" : 58,
            "type" : "VEC4"
        },
        {
            "bufferView" : 5,
            "componentType" : 5123,
            "count" : 108,
            "type" : "SCALAR"
        },
        {
            "bufferView" : 6,
            "componentType" : 5126,
            "count" : 5,
            "type" : "MAT4"
        },
        {
            "bufferView" : 7,
            "componentType" : 5126,
            "count" : 2,
            "max" : [
                0.4166666666666667
            ],
            "min" : [
                0.041666666666666664
            ],
            "type" : "SCALAR"
        },
        {
            "bufferView" : 8,
            "componentType" : 5126,
            "count" : 2,
            "type" : "VEC3"
        },
        {
            "bufferView" : 9,
            "componentType" : 5126,
            "count" : 2,
            "type" : "VEC4"
        },
        {
            "bufferView" : 10,
            "componentType" : 5126,
            "count" : 2,
            "type" : "VEC3"
        }
    ],
    "bufferViews" : [
        {
            "buffer" : 0,
            "byteLength" : 696,
            "byteOffset" : 0
        },
        {
            "buffer" : 0,
            "byteLength" : 696,
            "byteOffset" : 696
        },
        {
            "buffer" : 0,
            "byteLength" : 464,
            "byteOffset" : 1392
        },
        {
            "buffer" : 0,
            "byteLength" : 232,
            "byteOffset" : 1856
        },
        {
            "buffer" : 0,
            "byteLength" : 928,
            "byteOffset" : 2088
        },
        {
            "buffer" : 0,
            "byteLength" : 216,
            "byteOffset" : 3016
        },
        {
            "buffer" : 0,
            "byteLength" : 320,
            "byteOffset" : 3232
        },
        {
            "buffer" : 0,
            "byteLength" : 8,
            "byteOffset" : 3552
        },
        {
            "buffer" : 0,
            "byteLength" : 24,
            "byteOffset" : 3560
        },
        {
            "buffer" : 0,
            "byteLength" : 32,
            "byteOffset" : 3584
        },
        {
            "buffer" : 0,
            "byteLength" : 24,
            "byteOffset" : 3616
        }
    ],
    "samplers" : [
        {
            "magFilter" : 9729,
            "minFilter" : 9987
        }
    ],
    "buffers" : [
        {
            "byteLength" : 3640,
            "uri" : "TestIKObject.bin"
        }
    ]
}
