# Blender v3.1.2 OBJ File: ''
# www.blender.org
mtllib goal.mtl
o 立方体
v -1.000000 1.960400 17.066580
v -1.000000 -1.960400 -17.066580
v -1.000000 -1.960406 17.066580
v -1.000000 1.960406 -17.066580
v 1.000000 -1.960400 -17.066580
v 1.000000 1.960406 -17.066580
v 1.000000 -1.960406 17.066580
v 1.000000 1.960400 17.066580
vt 0.961627 0.378688
vt 0.038373 0.272636
vt 0.961627 0.272636
vt 0.474311 0.917875
vt 0.525689 0.817152
vt 0.474311 0.817152
vt 0.961627 0.378688
vt 0.038373 0.272636
vt 0.961627 0.272636
vt 0.525689 0.917875
vt 0.474311 0.817152
vt 0.525689 0.817152
vt 0.046975 0.419980
vt 0.974384 0.446687
vt 0.047112 0.451365
vt 0.046975 0.419980
vt 0.974384 0.446687
vt 0.047112 0.451365
vt 0.038373 0.378688
vt 0.525689 0.917875
vt 0.038373 0.378688
vt 0.474311 0.917875
vt 0.974247 0.415302
vt 0.974247 0.415302
vn -1.0000 0.0000 0.0000
vn 0.0000 0.0000 -1.0000
vn 1.0000 0.0000 0.0000
vn 0.0000 0.0000 1.0000
vn 0.0000 -1.0000 -0.0000
vn 0.0000 1.0000 0.0000
usemtl None
s 1
f 1/1/1 2/2/1 3/3/1
f 4/4/2 5/5/2 2/6/2
f 6/7/3 7/8/3 5/9/3
f 8/10/4 3/11/4 7/12/4
f 5/13/5 3/14/5 2/15/5
f 4/16/6 8/17/6 6/18/6
f 1/1/1 4/19/1 2/2/1
f 4/4/2 6/20/2 5/5/2
f 6/7/3 8/21/3 7/8/3
f 8/10/4 1/22/4 3/11/4
f 5/13/5 7/23/5 3/14/5
f 4/16/6 1/24/6 8/17/6
