# Blender v3.1.2 OBJ File: 'star.blend'
# www.blender.org
mtllib star.mtl
o 円
v -0.000182 0.001076 0.381383
v -0.000182 0.001076 0.381383
v -0.000182 0.001076 0.381383
v -0.000182 0.001076 0.381383
v -0.000182 0.001076 0.381383
v -0.000182 0.001076 0.381383
v -0.000182 0.001076 0.381383
v -0.000182 0.001076 0.381383
v -0.000182 0.001076 0.381383
v -0.000182 0.001076 0.381383
v -0.000182 0.001076 -0.380106
v -0.000182 0.001076 -0.380106
v -0.000182 0.001076 -0.380106
v -0.000182 0.001076 -0.380106
v -0.000182 0.001076 -0.380106
v -0.000182 0.001076 -0.380106
v -0.000182 0.001076 -0.380106
v -0.000182 0.001076 -0.380106
v -0.000182 0.001076 -0.380106
v -0.000182 0.001076 -0.380106
v 0.503003 -0.171069 0.000639
v 0.919225 0.300598 0.000639
v -0.000182 0.956766 0.000639
v -0.351444 0.459223 0.000639
v -0.491972 -0.171069 0.000639
v -0.565812 -0.782621 0.000639
v 0.565448 -0.792116 0.000639
v 0.361569 0.453103 0.000639
v -0.926298 0.300978 0.000639
v -0.000182 -0.446859 0.000639
v -0.000182 0.001076 0.381383
v -0.000182 0.001076 -0.380106
v -0.881514 0.340056 0.000639
v -0.000182 0.001076 0.381383
v -0.000182 0.001076 -0.380106
v -0.913334 0.242575 0.000639
v -0.000182 0.001076 0.381383
v -0.000182 0.001076 -0.380106
v -0.583960 -0.737157 0.000639
v -0.000182 0.001076 0.381383
v -0.000182 0.001076 -0.380106
v -0.505225 -0.785732 0.000639
v -0.000182 0.001076 0.381383
v -0.000182 0.001076 -0.380106
v 0.517522 -0.801557 0.000639
v -0.000182 0.001076 0.381383
v -0.000182 0.001076 -0.380106
v 0.583597 -0.737157 0.000639
v -0.000182 0.001076 0.381383
v -0.000182 0.001076 -0.380106
v 0.915359 0.249055 0.000639
v -0.000182 0.001076 0.381383
v -0.000182 0.001076 -0.380106
v 0.873834 0.331563 0.000639
v -0.000182 0.001076 0.381383
v -0.000182 0.001076 -0.380106
v 0.046523 0.925495 0.000639
v -0.000182 0.001076 0.381383
v -0.000182 0.001076 -0.380106
v -0.046886 0.928660 0.000639
v 0.188743 -0.060310 -0.224762
v -0.000182 0.478921 -0.224762
v -0.189106 -0.060310 -0.224762
v 0.282633 -0.395520 -0.224762
v 0.116580 0.161785 -0.224762
v -0.463240 0.151027 -0.224762
v -0.000182 -0.197571 -0.224762
v 0.459522 0.150837 -0.224762
v -0.116944 0.161785 -0.224762
v -0.282997 -0.390773 -0.224762
v -0.440848 0.170566 -0.224762
v -0.456758 0.121825 -0.224762
v -0.292071 -0.368041 -0.224762
v -0.252703 -0.392328 -0.224762
v 0.258670 -0.400241 -0.224762
v 0.291708 -0.368041 -0.224762
v 0.457589 0.125066 -0.224762
v 0.436826 0.166319 -0.224762
v 0.023171 0.463285 -0.224762
v -0.023534 0.464868 -0.224762
v 0.459522 0.150837 0.224638
v -0.116944 0.161785 0.224638
v -0.282997 -0.390773 0.224638
v 0.188743 -0.060310 0.224638
v -0.000182 0.478921 0.224638
v -0.189106 -0.060310 0.224638
v 0.282633 -0.395520 0.224638
v 0.116580 0.161785 0.224638
v -0.463240 0.151027 0.224638
v -0.000182 -0.197571 0.224638
v -0.440848 0.170566 0.224638
v -0.456758 0.121825 0.224638
v -0.292071 -0.368041 0.224638
v -0.252703 -0.392328 0.224638
v 0.258670 -0.400241 0.224638
v 0.291708 -0.368041 0.224638
v 0.457589 0.125066 0.224638
v 0.436826 0.166320 0.224638
v 0.023171 0.463285 0.224638
v -0.023534 0.464868 0.224638
v 0.689373 0.225717 -0.134515
v -0.175325 0.242139 -0.134515
v -0.424404 -0.586697 -0.134515
v 0.283206 -0.091002 -0.134515
v -0.000182 0.717843 -0.134515
v -0.283569 -0.091002 -0.134515
v 0.424041 -0.593818 -0.134515
v 0.174961 0.242139 -0.134515
v -0.694769 0.226002 -0.134515
v -0.000182 -0.296895 -0.134515
v -0.661181 0.255311 -0.134515
v -0.685046 0.182200 -0.134515
v -0.438016 -0.552599 -0.134515
v -0.378964 -0.589030 -0.134515
v 0.388096 -0.600899 -0.134515
v 0.437652 -0.552599 -0.134515
v 0.686474 0.187061 -0.134515
v 0.655330 0.248941 -0.134515
v 0.034847 0.694390 -0.134515
v -0.035210 0.696764 -0.134515
v 0.283206 -0.091002 0.132723
v -0.000182 0.717843 0.132723
v -0.283569 -0.091002 0.132723
v 0.424041 -0.593818 0.132723
v 0.174961 0.242139 0.132723
v -0.694769 0.226002 0.132723
v -0.000182 -0.296895 0.132723
v -0.661181 0.255311 0.132723
v -0.685046 0.182200 0.132723
v -0.438016 -0.552599 0.132723
v -0.378964 -0.589030 0.132723
v 0.388096 -0.600899 0.132723
v 0.437652 -0.552599 0.132723
v 0.686474 0.187061 0.132723
v 0.655330 0.248941 0.132723
v 0.034847 0.694390 0.132723
v -0.035210 0.696764 0.132723
v 0.689373 0.225717 0.132723
v -0.175325 0.242139 0.132723
v -0.424404 -0.586697 0.132723
vt 0.600777 0.326099
vt 0.600777 0.326099
vt 0.600777 0.326099
vt 0.600777 0.371038
vt 0.600777 0.371038
vt 0.600777 0.371038
vt 0.904222 0.562239
vt 0.938812 0.523646
vt 0.938812 0.629292
vt 0.735266 0.281160
vt 0.857275 0.281160
vt 0.857275 0.281160
vt 0.191297 0.196940
vt 0.252225 0.202538
vt 0.140695 0.251818
vt 0.812942 0.632074
vt 0.819143 0.739749
vt 0.819143 0.739749
vt 0.807269 0.245878
vt 0.857275 0.281160
vt 0.736457 0.268404
vt 0.149978 0.118398
vt 0.252225 0.202538
vt 0.252225 0.202538
vt 0.219663 0.254340
vt 0.252225 0.202538
vt 0.257186 0.336274
vt 0.811903 0.158259
vt 0.857275 0.281160
vt 0.857275 0.281160
vt 0.065920 0.571576
vt 0.102823 0.522725
vt 0.096443 0.654992
vt 0.147002 0.262807
vt 0.252225 0.202538
vt 0.252225 0.202538
vt 0.372880 0.214206
vt 0.324717 0.174894
vt 0.382498 0.207273
vt 0.683545 0.593421
vt 0.617929 0.694957
vt 0.676953 0.530608
vt 0.378503 0.734016
vt 0.324045 0.702761
vt 0.387616 0.727337
vt 0.547401 0.096431
vt 0.470224 0.191285
vt 0.544588 0.027105
vt 0.389910 0.435133
vt 0.331978 0.463742
vt 0.387943 0.423909
vt 0.553687 0.599756
vt 0.496081 0.694739
vt 0.545473 0.532654
vt 0.224315 0.717633
vt 0.208468 0.773850
vt 0.214774 0.711620
vt 0.373104 0.223795
vt 0.413968 0.306318
vt 0.312193 0.196924
vt 0.563064 0.593001
vt 0.570557 0.530300
vt 0.572500 0.597991
vt 0.975776 0.071776
vt 0.902215 0.156641
vt 0.971529 0.022470
vt 0.693861 0.588199
vt 0.690708 0.523646
vt 0.102823 0.522725
vt 0.102823 0.658981
vt 0.449436 0.305841
vt 0.252225 0.202538
vt 0.311894 0.184138
vt 0.140575 0.258210
vt 0.491628 0.219566
vt 0.252225 0.202538
vt 0.555838 0.092955
vt 0.555838 0.022470
vt 0.252225 0.202538
vt 0.262818 0.338570
vt 0.147763 0.610336
vt 0.169245 0.588985
vt 0.781993 0.702175
vt 0.819143 0.739749
vt 0.313000 0.725199
vt 0.311894 0.711667
vt 0.821733 0.152994
vt 0.815856 0.152208
vt 0.516643 0.721320
vt 0.857275 0.281160
vt 0.557977 0.523646
vt 0.732457 0.274633
vt 0.937417 0.929364
vt 0.864083 0.848322
vt 0.885616 0.832458
vt 0.942256 0.437604
vt 0.976724 0.476352
vt 0.976724 0.476352
vt 0.924022 0.419048
vt 0.976724 0.373032
vt 0.674816 0.261885
vt 0.668816 0.271229
vt 0.781034 0.228096
vt 0.802731 0.088771
vt 0.793915 0.087591
vt 0.762476 0.684195
vt 0.258509 0.403714
vt 0.266955 0.407158
vt 0.202223 0.280813
vt 0.083771 0.277029
vt 0.083591 0.286617
vt 0.159674 0.194713
vt 0.092078 0.721520
vt 0.101648 0.727503
vt 0.093232 0.293513
vt 0.046293 0.596396
vt 0.787985 0.096668
vt 0.097696 0.076899
vt 0.151255 0.110912
vt 0.808899 0.579042
vt 0.819143 0.629453
vt 0.673030 0.281019
vt 0.885931 0.580713
vt 0.937816 0.681292
vt 0.938493 0.775294
vt 0.903959 0.813989
vt 0.938493 0.775294
vt 0.572990 0.793984
vt 0.560448 0.664932
vt 0.566699 0.660428
vt 0.572990 0.793984
vt 0.535752 0.745975
vt 0.572990 0.793984
vt 0.572990 0.793984
vt 0.444211 0.761205
vt 0.443658 0.754439
vt 0.225103 0.522726
vt 0.188390 0.567033
vt 0.225103 0.522726
vt 0.542238 0.297771
vt 0.546512 0.163950
vt 0.552137 0.161633
vt 0.542238 0.297771
vt 0.509330 0.246040
vt 0.542238 0.297771
vt 0.542238 0.297771
vt 0.430314 0.248860
vt 0.430165 0.242467
vt 0.542238 0.297771
vt 0.481202 0.303557
vt 0.542238 0.297771
vt 0.694656 0.783743
vt 0.687778 0.656746
vt 0.694656 0.653265
vt 0.976847 0.229327
vt 0.942190 0.190789
vt 0.976847 0.123703
vt 0.572990 0.663755
vt 0.572990 0.793984
vt 0.542238 0.297771
vt 0.225103 0.522726
vt 0.218742 0.648790
vt 0.572990 0.793984
vt 0.542238 0.297771
vt 0.440207 0.382269
vt 0.542238 0.297771
vt 0.449734 0.749986
vt 0.694656 0.783743
vt 0.658266 0.738921
vt 0.436576 0.237845
vt 0.864083 0.596249
vt 0.933262 0.730354
vt 0.606396 0.280374
vt 0.123913 0.194526
vt 0.022710 0.304282
vt 0.801493 0.528888
vt 0.818201 0.575111
vt 0.750401 0.209810
vt 0.608778 0.254862
vt 0.041276 0.037441
vt 0.099611 0.065670
vt 0.180646 0.309326
vt 0.255693 0.473194
vt 0.759669 0.034572
vt 0.022470 0.622626
vt 0.083517 0.789458
vt 0.035324 0.326259
vt 0.096277 0.797435
vt 0.022470 0.317066
vt 0.266955 0.477786
vt 0.739595 0.669091
vt 0.779330 0.024043
vt 0.767576 0.022470
vt 0.600777 0.267321
vt 0.902215 0.403410
vt 0.975724 0.322190
vt 0.938493 0.878593
vt 0.379332 0.744165
vt 0.923791 0.172404
vt 0.225103 0.652799
vt 0.441518 0.389751
vt 0.639277 0.716682
vt 0.600777 0.326099
vt 0.600777 0.326099
vt 0.600777 0.326099
vt 0.600777 0.326099
vt 0.600777 0.326099
vt 0.600777 0.326099
vt 0.600777 0.326099
vt 0.600777 0.326099
vt 0.600777 0.326099
vt 0.600777 0.326099
vt 0.600777 0.326099
vt 0.600777 0.326099
vt 0.600777 0.326099
vt 0.600777 0.326099
vt 0.600777 0.326099
vt 0.600777 0.326099
vt 0.600777 0.326099
vt 0.600777 0.371038
vt 0.600777 0.371038
vt 0.600777 0.371038
vt 0.600777 0.371038
vt 0.600777 0.371038
vt 0.600777 0.371038
vt 0.600777 0.371038
vt 0.600777 0.371038
vt 0.600777 0.371038
vt 0.600777 0.371038
vt 0.600777 0.371038
vt 0.600777 0.371038
vt 0.600777 0.371038
vt 0.600777 0.371038
vt 0.600777 0.371038
vt 0.600777 0.371038
vt 0.600777 0.371038
vt 0.938812 0.523646
vt 0.102823 0.522725
vt 0.334601 0.478707
vt 0.221190 0.781867
vt 0.857275 0.281160
vt 0.933151 0.977530
vt 0.572990 0.793984
vt 0.976847 0.229327
vt 0.694656 0.783743
vt 0.813895 0.523646
vt 0.043830 0.022470
vt 0.971150 0.274266
vn 0.0000 0.0000 1.0000
vn 0.3983 -0.5776 -0.7126
vn -0.6613 0.2213 -0.7168
vn -1.0000 0.0000 0.0000
vn 0.6673 0.2068 -0.7155
vn 0.8195 0.0000 -0.5731
vn -0.4344 -0.5549 -0.7095
vn 0.0190 0.7020 -0.7119
vn -0.0280 -0.5448 0.8381
vn -0.1557 0.6927 0.7042
vn 0.3201 0.4692 0.8230
vn -0.4632 -0.6760 0.5731
vn -0.5202 -0.1155 0.8462
vn 0.5754 0.3837 0.7223
vn 0.5298 -0.1750 0.8299
vn -0.7460 0.1212 0.6549
vn -0.2795 0.4645 0.8403
vn 0.5284 -0.5186 0.6722
vn -0.3516 0.4029 0.8450
vn -0.2293 0.2628 -0.9372
vn -0.3287 -0.4831 0.8115
vn 0.5766 0.0000 -0.8170
vn -0.5048 -0.2015 0.8394
vn -0.3305 -0.1319 -0.9345
vn 0.4542 -0.5889 0.6686
vn 0.0989 -0.5019 0.8593
vn 0.0639 -0.3242 -0.9438
vn 0.5549 0.1857 0.8109
vn -0.5316 0.0000 0.8470
vn 0.5072 -0.0380 0.8610
vn 0.3272 -0.0245 -0.9446
vn -0.0076 0.5355 0.8445
vn 0.3082 0.4603 0.8326
vn 0.2027 0.3027 -0.9313
vn -0.4724 0.1456 0.8693
vn -0.7173 0.2211 -0.6608
vn 0.2302 0.3439 -0.9104
vn -0.0106 0.7502 -0.6611
vn 0.3732 -0.0280 -0.9273
vn 0.7103 0.2376 -0.6626
vn 0.0728 -0.3696 -0.9263
vn 0.4604 -0.5970 -0.6570
vn -0.3758 -0.1500 -0.9145
vn -0.4244 -0.6237 -0.6564
vn -0.2609 0.2990 -0.9179
vn -0.0208 -0.4058 -0.9137
vn 0.0204 0.7532 -0.6574
vn 0.2404 0.3523 -0.9045
vn -0.4659 -0.5950 -0.6549
vn -0.3858 -0.0856 -0.9186
vn 0.7166 0.2220 -0.6612
vn 0.3964 -0.1309 -0.9087
vn -0.7103 0.2376 -0.6626
vn -0.2080 0.3456 -0.9150
vn 0.4274 -0.6198 -0.6581
vn 0.2043 0.3051 0.9301
vn 0.3298 -0.0247 0.9437
vn 0.0000 0.0000 -1.0000
vn 0.0644 -0.3268 0.9429
vn -0.3331 -0.1330 0.9335
vn -0.2311 0.2649 0.9362
vn 0.4001 -0.5802 0.7094
vn -0.6643 0.2223 0.7136
vn 0.8944 0.0000 -0.4472
vn 0.6704 0.2077 0.7123
vn -0.4364 -0.5574 0.7063
vn 0.0191 0.7052 0.7088
vn 0.5338 -0.5240 -0.6637
vn -0.2841 0.4721 -0.8345
vn -0.7532 0.1224 -0.6462
vn 0.5382 -0.1777 -0.8239
vn 0.5822 0.3883 -0.7143
vn -0.5287 -0.1174 -0.8406
vn -0.4666 -0.6811 -0.5643
vn 0.3251 0.4765 -0.8169
vn -0.1575 0.7005 -0.6960
vn -0.0284 -0.5536 -0.8323
vn -0.3574 0.4095 -0.8394
vn -0.3337 -0.4904 -0.8051
vn -0.5130 -0.2048 -0.8336
vn 0.4588 -0.5949 -0.6600
vn 0.1005 -0.5104 -0.8540
vn 0.5633 0.1885 -0.8045
vn 0.5158 -0.0387 -0.8558
vn -0.0077 0.5442 -0.8389
vn 0.3131 0.4676 -0.8266
vn -0.4807 0.1481 -0.8643
vn -0.7230 0.2228 0.6540
vn 0.2337 0.3491 0.9075
vn -0.0107 0.7562 0.6543
vn 0.3791 -0.0284 0.9249
vn 0.7159 0.2395 0.6558
vn 0.0740 -0.3755 0.9239
vn 0.4640 -0.6017 0.6501
vn -0.3816 -0.1523 0.9117
vn -0.4278 -0.6286 0.6495
vn -0.2650 0.3037 0.9152
vn 0.4308 -0.6247 0.6513
vn -0.2112 0.3510 0.9123
vn -0.7159 0.2395 0.6558
vn 0.4024 -0.1329 0.9058
vn 0.7223 0.2238 0.6544
vn -0.3918 -0.0870 0.9159
vn -0.4695 -0.5997 0.6480
vn 0.2440 0.3576 0.9014
vn 0.0206 0.7591 0.6506
vn -0.0212 -0.4121 0.9109
vn 1.0000 0.0000 0.0000
vn 0.5316 0.0000 -0.8470
vn -0.1829 0.3040 -0.9350
vn -0.5766 0.0000 0.8170
vn 0.3491 -0.1153 -0.9300
vn -0.3390 -0.0752 -0.9378
vn 0.2119 0.3106 -0.9266
vn -0.0183 -0.3570 -0.9339
vn 0.0143 0.5282 0.8490
vn -0.4596 -0.5870 0.6665
vn 0.4596 0.1424 0.8767
vn -0.5771 0.1931 0.7935
vn 0.3232 -0.4688 0.8220
vn -0.5247 -0.5345 0.6626
vn -0.3956 -0.5814 -0.7109
vn 0.4556 -0.6790 0.5757
vn 0.4291 -0.5564 -0.7115
vn 0.7370 0.1049 0.6677
vn 0.6613 0.2213 -0.7168
vn 0.1640 0.6913 0.7037
vn -0.0099 0.6987 -0.7154
vn -0.5845 0.3792 0.7174
vn -0.6680 0.2059 -0.7151
vn -0.6711 0.2068 0.7120
vn -0.0099 0.7019 0.7122
vn 0.6643 0.2223 0.7136
vn 0.4311 -0.5589 0.7084
vn -0.8944 0.0000 -0.4472
vn -0.3974 -0.5840 0.7078
vn -0.1843 0.3063 0.9339
vn 0.3519 -0.1162 0.9288
vn -0.3417 -0.0758 0.9368
vn 0.2136 0.3130 0.9254
vn -0.0185 -0.3598 0.9328
vn 0.3283 -0.4761 -0.8159
vn -0.5854 0.1959 -0.7867
vn 0.4677 0.1449 -0.8719
vn -0.4643 -0.5930 -0.6579
vn 0.0146 0.5370 -0.8435
vn -0.5300 -0.5398 -0.6540
vn 0.4590 -0.6841 -0.5668
vn 0.7445 0.1060 -0.6592
vn 0.1659 0.6991 -0.6955
vn -0.5913 0.3836 -0.7093
usemtl マテリアル
s off
f 9/1/1 37/2/1 6/3/1
f 13/4/1 47/5/1 16/6/1
f 61/7/2 50/8/2 77/9/2
f 80/10/1 11/11/1 59/12/1
f 63/13/3 38/14/3 73/15/3
f 76/16/4 15/17/4 47/18/4
f 65/19/5 56/20/5 79/21/5
f 72/22/6 19/23/6 35/24/6
f 67/25/7 44/26/7 75/27/7
f 78/28/1 13/29/1 53/30/1
f 69/31/8 32/32/8 71/33/8
f 74/34/1 17/35/1 41/36/1
f 140/37/9 42/38/9 131/39/9
f 128/40/10 24/41/10 33/42/10
f 138/43/11 54/44/11 135/45/11
f 132/46/12 30/47/12 45/48/12
f 126/49/13 36/50/13 129/51/13
f 136/52/14 28/53/14 57/54/14
f 124/55/15 48/56/15 133/57/15
f 130/58/16 25/59/16 39/60/16
f 122/61/17 60/62/17 137/63/17
f 134/64/18 21/65/18 51/66/18
f 126/67/19 33/42/19 29/68/19
f 71/33/20 19/69/20 66/70/20
f 129/51/21 25/59/21 123/71/21
f 63/13/22 35/24/22 18/72/22
f 140/37/23 39/60/23 26/73/23
f 73/15/24 17/35/24 70/74/24
f 131/39/25 30/47/25 127/75/25
f 67/25/1 41/36/1 16/76/1
f 124/77/26 45/48/26 27/78/26
f 75/27/27 15/79/27 64/80/27
f 133/57/28 21/81/28 121/82/28
f 61/83/29 47/18/29 14/84/29
f 138/43/30 51/85/30 22/86/30
f 77/87/31 13/29/31 68/88/31
f 135/45/32 28/53/32 125/89/32
f 65/19/1 53/30/1 12/90/1
f 122/61/33 57/54/33 23/91/33
f 79/21/34 11/11/34 62/92/34
f 137/93/35 24/94/35 139/95/35
f 69/96/1 59/97/1 20/98/1
f 102/99/36 80/100/36 69/96/36
f 119/101/37 62/92/37 105/102/37
f 108/103/38 78/28/38 65/19/38
f 117/104/39 68/88/39 101/105/39
f 104/106/40 76/16/40 61/83/40
f 115/107/41 64/80/41 107/108/41
f 110/109/42 74/34/42 67/25/42
f 113/110/43 70/74/43 103/111/43
f 106/112/44 72/22/44 63/13/44
f 111/113/45 66/70/45 109/114/45
f 114/115/46 70/74/46 74/34/46
f 102/116/47 71/33/47 111/113/47
f 118/117/48 68/88/48 78/28/48
f 110/109/49 75/27/49 115/107/49
f 112/118/50 66/119/50 72/22/50
f 108/103/51 79/21/51 119/101/51
f 116/120/52 64/121/52 76/16/52
f 106/112/53 73/15/53 113/110/53
f 120/122/54 62/92/54 80/10/54
f 104/123/55 77/9/55 117/124/55
f 58/125/1 82/126/1 10/127/1
f 1/128/56 99/129/56 85/130/56
f 52/131/1 88/132/1 2/133/1
f 3/134/57 97/135/57 81/136/57
f 46/137/58 84/138/58 4/139/58
f 5/140/59 95/141/59 87/142/59
f 40/143/1 90/144/1 6/145/1
f 7/146/60 93/147/60 83/148/60
f 34/149/1 86/150/1 8/151/1
f 9/152/61 91/153/61 89/154/61
f 49/155/62 84/156/62 97/157/62
f 1/128/1 100/158/1 58/159/1
f 37/160/63 86/150/63 93/147/63
f 5/161/64 96/162/64 46/137/64
f 55/163/65 88/132/65 99/129/65
f 9/164/1 92/165/1 34/149/1
f 43/166/66 90/144/66 95/141/66
f 3/134/1 98/167/1 52/131/1
f 31/168/67 82/169/67 91/153/67
f 7/146/1 94/170/1 40/143/1
f 21/171/68 117/124/68 51/172/68
f 60/173/69 105/102/69 120/122/69
f 25/174/70 113/110/70 39/175/70
f 48/176/71 107/177/71 116/120/71
f 28/178/72 119/101/72 57/179/72
f 36/180/73 109/181/73 112/118/73
f 30/182/74 115/107/74 45/183/74
f 54/184/75 101/105/75 118/117/75
f 24/185/76 111/113/76 33/186/76
f 42/187/77 103/111/77 114/115/77
f 33/186/78 109/114/78 29/188/78
f 25/174/79 112/118/79 106/112/79
f 39/175/80 103/111/80 26/189/80
f 30/182/81 114/115/81 110/109/81
f 45/183/82 107/108/82 27/190/82
f 21/191/83 116/120/83 104/106/83
f 51/192/84 101/105/84 22/193/84
f 28/178/85 118/117/85 108/103/85
f 57/179/86 105/102/86 23/194/86
f 24/195/87 120/196/87 102/99/87
f 100/197/88 139/95/88 82/126/88
f 85/130/89 136/52/89 122/61/89
f 98/167/90 125/89/90 88/132/90
f 81/136/91 134/198/91 138/43/91
f 96/162/92 121/82/92 84/138/92
f 87/142/93 132/46/93 124/77/93
f 94/170/94 127/75/94 90/144/94
f 83/148/95 130/58/95 140/37/95
f 92/165/96 123/71/96 86/150/96
f 89/154/97 128/40/97 126/67/97
f 97/157/98 121/199/98 134/64/98
f 85/130/99 137/63/99 100/158/99
f 93/147/100 123/71/100 130/58/100
f 87/200/101 133/57/101 96/162/101
f 99/129/102 125/89/102 136/52/102
f 89/201/103 129/51/103 92/165/103
f 95/141/104 127/75/104 132/46/104
f 81/136/105 135/45/105 98/167/105
f 91/153/106 139/202/106 128/40/106
f 83/148/107 131/39/107 94/170/107
f 55/203/1 1/204/1 58/205/1
f 10/206/1 31/207/1 9/1/1
f 2/208/1 55/203/1 58/205/1
f 2/208/1 58/205/1 10/206/1
f 49/209/1 3/210/1 52/211/1
f 2/208/1 10/206/1 9/1/1
f 49/209/1 52/211/1 2/208/1
f 5/212/1 46/213/1 4/214/1
f 4/214/108 49/209/108 2/208/108
f 9/1/1 34/215/1 8/216/1
f 9/1/1 8/216/1 37/2/1
f 37/2/1 7/217/1 40/218/1
f 6/3/1 43/219/1 5/212/1
f 37/2/1 40/218/1 6/3/1
f 4/214/1 2/208/1 9/1/1
f 5/212/1 4/214/1 9/1/1
f 6/3/1 5/212/1 9/1/1
f 59/220/1 11/221/1 56/222/1
f 12/223/1 53/224/1 13/4/1
f 20/225/1 59/220/1 56/222/1
f 20/225/1 56/222/1 12/223/1
f 35/226/1 19/227/1 32/228/1
f 20/225/1 12/223/1 13/4/1
f 35/226/1 32/228/1 20/225/1
f 17/229/1 38/230/1 18/231/1
f 18/231/108 35/226/108 20/225/108
f 13/4/1 50/232/1 14/233/1
f 13/4/1 14/233/1 47/5/1
f 47/5/1 15/234/1 44/235/1
f 16/6/1 41/236/1 17/229/1
f 47/5/1 44/235/1 16/6/1
f 18/231/1 20/225/1 13/4/1
f 17/229/1 18/231/1 13/4/1
f 16/6/1 17/229/1 13/4/1
f 61/7/109 14/237/109 50/8/109
f 80/10/110 62/92/110 11/11/110
f 63/13/111 18/72/111 38/14/111
f 76/16/112 64/121/112 15/17/112
f 65/19/1 12/90/1 56/20/1
f 72/22/113 66/119/113 19/23/113
f 67/25/1 16/76/1 44/26/1
f 78/28/114 68/88/114 13/29/114
f 69/31/1 20/238/1 32/32/1
f 74/34/115 70/74/115 17/35/115
f 140/37/9 26/73/9 42/38/9
f 128/40/116 139/202/116 24/41/116
f 138/43/11 22/86/11 54/44/11
f 132/46/117 127/75/117 30/47/117
f 126/49/13 29/239/13 36/50/13
f 136/52/118 125/89/118 28/53/118
f 124/55/15 27/240/15 48/56/15
f 130/58/119 123/71/119 25/59/119
f 122/61/17 23/91/17 60/62/17
f 134/64/120 121/199/120 21/65/120
f 126/67/19 128/40/19 33/42/19
f 71/33/1 32/32/1 19/69/1
f 129/51/121 36/50/121 25/59/121
f 63/13/122 72/22/122 35/24/122
f 140/37/23 130/58/23 39/60/23
f 73/15/108 38/14/108 17/35/108
f 131/39/123 42/38/123 30/47/123
f 67/25/124 74/34/124 41/36/124
f 124/77/26 132/46/26 45/48/26
f 75/27/1 44/26/1 15/79/1
f 133/57/125 48/56/125 21/81/125
f 61/83/126 76/16/126 47/18/126
f 138/43/30 134/198/30 51/85/30
f 77/87/4 50/241/4 13/29/4
f 135/45/127 54/44/127 28/53/127
f 65/19/128 78/28/128 53/30/128
f 122/61/33 136/52/33 57/54/33
f 79/21/1 56/20/1 11/11/1
f 137/93/129 60/242/129 24/94/129
f 69/96/130 80/100/130 59/97/130
f 102/99/36 120/196/36 80/100/36
f 119/101/37 79/21/37 62/92/37
f 108/103/38 118/117/38 78/28/38
f 117/104/39 77/87/39 68/88/39
f 104/106/40 116/120/40 76/16/40
f 115/107/41 75/27/41 64/80/41
f 110/109/42 114/115/42 74/34/42
f 113/110/43 73/15/43 70/74/43
f 106/112/44 112/118/44 72/22/44
f 111/113/45 71/33/45 66/70/45
f 114/115/46 103/111/46 70/74/46
f 102/116/47 69/31/47 71/33/47
f 118/117/48 101/105/48 68/88/48
f 110/109/49 67/25/49 75/27/49
f 112/118/50 109/181/50 66/119/50
f 108/103/51 65/19/51 79/21/51
f 116/120/52 107/177/52 64/121/52
f 106/112/53 63/13/53 73/15/53
f 120/122/54 105/102/54 62/92/54
f 104/123/55 61/7/55 77/9/55
f 58/125/131 100/197/131 82/126/131
f 1/128/1 55/163/1 99/129/1
f 52/131/132 98/167/132 88/132/132
f 3/134/1 49/243/1 97/135/1
f 46/137/133 96/162/133 84/138/133
f 5/140/1 43/166/1 95/141/1
f 40/143/134 94/170/134 90/144/134
f 7/146/135 37/160/135 93/147/135
f 34/149/136 92/165/136 86/150/136
f 9/152/1 31/168/1 91/153/1
f 49/155/1 4/244/1 84/156/1
f 1/128/137 85/130/137 100/158/137
f 37/160/58 8/151/58 86/150/58
f 5/161/138 87/200/138 96/162/138
f 55/163/1 2/133/1 88/132/1
f 9/164/139 89/201/139 92/165/139
f 43/166/1 6/145/1 90/144/1
f 3/134/140 81/136/140 98/167/140
f 31/168/1 10/245/1 82/169/1
f 7/146/141 83/148/141 94/170/141
f 21/171/142 104/123/142 117/124/142
f 60/173/69 23/194/69 105/102/69
f 25/174/143 106/112/143 113/110/143
f 48/176/71 27/246/71 107/177/71
f 28/178/144 108/103/144 119/101/144
f 36/180/73 29/247/73 109/181/73
f 30/182/145 110/109/145 115/107/145
f 54/184/75 22/193/75 101/105/75
f 24/185/146 102/116/146 111/113/146
f 42/187/77 26/189/77 103/111/77
f 33/186/78 111/113/78 109/114/78
f 25/174/147 36/180/147 112/118/147
f 39/175/80 113/110/80 103/111/80
f 30/182/148 42/187/148 114/115/148
f 45/183/82 115/107/82 107/108/82
f 21/191/149 48/176/149 116/120/149
f 51/192/84 117/104/84 101/105/84
f 28/178/150 54/184/150 118/117/150
f 57/179/86 119/101/86 105/102/86
f 24/195/151 60/248/151 120/196/151
f 100/197/88 137/93/88 139/95/88
f 85/130/89 99/129/89 136/52/89
f 98/167/90 135/45/90 125/89/90
f 81/136/91 97/135/91 134/198/91
f 96/162/92 133/57/92 121/82/92
f 87/142/93 95/141/93 132/46/93
f 94/170/94 131/39/94 127/75/94
f 83/148/95 93/147/95 130/58/95
f 92/165/96 129/51/96 123/71/96
f 89/154/97 91/153/97 128/40/97
f 97/157/98 84/156/98 121/199/98
f 85/130/99 122/61/99 137/63/99
f 93/147/100 86/150/100 123/71/100
f 87/200/101 124/55/101 133/57/101
f 99/129/102 88/132/102 125/89/102
f 89/201/103 126/49/103 129/51/103
f 95/141/104 90/144/104 127/75/104
f 81/136/105 138/43/105 135/45/105
f 91/153/106 82/169/106 139/202/106
f 83/148/107 140/37/107 131/39/107
