{
    "asset" : {
        "generator" : "Khronos glTF Blender I/O v1.8.19",
        "version" : "2.0"
    },
    "scene" : 0,
    "scenes" : [
        {
            "name" : "Scene",
            "nodes" : [
                4
            ]
        }
    ],
    "nodes" : [
        {
            "name" : "bone3",
            "rotation" : [
                -0.04398026317358017,
                -2.0811699030787167e-08,
                0.03311761096119881,
                0.9984833598136902
            ],
            "scale" : [
                1.0000001192092896,
                1,
                1
            ],
            "translation" : [
                8.99240848450944e-10,
                2.3292062282562256,
                -6.09733632472853e-08
            ]
        },
        {
            "children" : [
                0
            ],
            "name" : "bone2",
            "rotation" : [
                -0.6522248983383179,
                -1.8747197262462822e-14,
                1.5550250509477337e-07,
                0.7580255270004272
            ],
            "scale" : [
                1,
                1.0000001192092896,
                1.0000001192092896
            ],
            "translation" : [
                1.957410131875857e-15,
                2.716231346130371,
                -1.4901161193847656e-07
            ]
        },
        {
            "children" : [
                1
            ],
            "name" : "Bone",
            "rotation" : [
                0.349398672580719,
                -1.1169599645199924e-07,
                -4.165155331747883e-08,
                0.9369741678237915
            ],
            "scale" : [
                1,
                0.9999999403953552,
                0.9999998211860657
            ],
            "translation" : [
                7.046539086009041e-15,
                0.265209823846817,
                -0.19500723481178284
            ]
        },
        {
            "mesh" : 0,
            "name" : "box",
            "skin" : 0
        },
        {
            "children" : [
                3,
                2
            ],
            "name" : "arme",
            "translation" : [
                0.022600341588258743,
                -0.9599955081939697,
                -0.44752436876296997
            ]
        }
    ],
    "meshes" : [
        {
            "name" : "box",
            "primitives" : [
                {
                    "attributes" : {
                        "POSITION" : 0,
                        "NORMAL" : 1,
                        "TEXCOORD_0" : 2,
                        "JOINTS_0" : 3,
                        "WEIGHTS_0" : 4
                    },
                    "indices" : 5
                }
            ]
        }
    ],
    "skins" : [
        {
            "inverseBindMatrices" : 6,
            "joints" : [
                2,
                1,
                0
            ],
            "name" : "arme"
        }
    ],
    "accessors" : [
        {
            "bufferView" : 0,
            "componentType" : 5126,
            "count" : 44,
            "max" : [
                1,
                4.210874080657959,
                2.8005049228668213
            ],
            "min" : [
                -1,
                -1.4142086505889893,
                -1.4142086505889893
            ],
            "type" : "VEC3"
        },
        {
            "bufferView" : 1,
            "componentType" : 5126,
            "count" : 44,
            "type" : "VEC3"
        },
        {
            "bufferView" : 2,
            "componentType" : 5126,
            "count" : 44,
            "type" : "VEC2"
        },
        {
            "bufferView" : 3,
            "componentType" : 5121,
            "count" : 44,
            "type" : "VEC4"
        },
        {
            "bufferView" : 4,
            "componentType" : 5126,
            "count" : 44,
            "type" : "VEC4"
        },
        {
            "bufferView" : 5,
            "componentType" : 5123,
            "count" : 84,
            "type" : "SCALAR"
        },
        {
            "bufferView" : 6,
            "componentType" : 5126,
            "count" : 3,
            "type" : "MAT4"
        }
    ],
    "bufferViews" : [
        {
            "buffer" : 0,
            "byteLength" : 528,
            "byteOffset" : 0
        },
        {
            "buffer" : 0,
            "byteLength" : 528,
            "byteOffset" : 528
        },
        {
            "buffer" : 0,
            "byteLength" : 352,
            "byteOffset" : 1056
        },
        {
            "buffer" : 0,
            "byteLength" : 176,
            "byteOffset" : 1408
        },
        {
            "buffer" : 0,
            "byteLength" : 704,
            "byteOffset" : 1584
        },
        {
            "buffer" : 0,
            "byteLength" : 168,
            "byteOffset" : 2288
        },
        {
            "buffer" : 0,
            "byteLength" : 192,
            "byteOffset" : 2456
        }
    ],
    "buffers" : [
        {
            "byteLength" : 2648,
            "uri" : "IKTest.bin"
        }
    ]
}
