{
    "asset" : {
        "generator" : "Khronos glTF Blender I/O v1.8.19",
        "version" : "2.0"
    },
    "scene" : 0,
    "scenes" : [
        {
            "name" : "Scene",
            "nodes" : [
                4
            ]
        }
    ],
    "nodes" : [
        {
            "name" : "bone3",
            "rotation" : [
                5.966285243630409e-10,
                2.6790074159066535e-08,
                -5.958609250455993e-08,
                1
            ],
            "scale" : [
                1.000000238418579,
                1.000000238418579,
                1.000000238418579
            ],
            "translation" : [
                -6.973444754976299e-08,
                2.410003423690796,
                6.984962053202537e-10
            ]
        },
        {
            "children" : [
                0
            ],
            "name" : "bone2",
            "rotation" : [
                0.0036642628256231546,
                -0.0013971807202324271,
                -0.3503098487854004,
                0.9366256594657898
            ],
            "scale" : [
                1.000000238418579,
                1,
                1
            ],
            "translation" : [
                -2.9801931589190644e-08,
                2.9308393001556396,
                -4.5215654137509276e-12
            ]
        },
        {
            "children" : [
                1
            ],
            "name" : "Bone",
            "rotation" : [
                2.488658310539904e-07,
                -4.489483629299684e-08,
                0.15471777319908142,
                0.9879587292671204
            ],
            "scale" : [
                1,
                0.9999998807907104,
                0.9999997615814209
            ],
            "translation" : [
                -0.006563000846654177,
                -0.9385062456130981,
                -1.260965802885039e-07
            ]
        },
        {
            "mesh" : 0,
            "name" : "Cube",
            "skin" : 0
        },
        {
            "children" : [
                3,
                2
            ],
            "name" : "armature"
        }
    ],
    "materials" : [
        {
            "doubleSided" : true,
            "name" : "Material.002",
            "pbrMetallicRoughness" : {
                "baseColorFactor" : [
                    0.800000011920929,
                    0.800000011920929,
                    0.800000011920929,
                    1
                ],
                "metallicFactor" : 0,
                "roughnessFactor" : 0.4000000059604645
            }
        }
    ],
    "meshes" : [
        {
            "name" : "Cube.002",
            "primitives" : [
                {
                    "attributes" : {
                        "POSITION" : 0,
                        "NORMAL" : 1,
                        "TEXCOORD_0" : 2,
                        "JOINTS_0" : 3,
                        "WEIGHTS_0" : 4
                    },
                    "indices" : 5,
                    "material" : 0
                }
            ]
        }
    ],
    "skins" : [
        {
            "inverseBindMatrices" : 6,
            "joints" : [
                2,
                1,
                0
            ],
            "name" : "armature"
        }
    ],
    "accessors" : [
        {
            "bufferView" : 0,
            "componentType" : 5126,
            "count" : 82,
            "max" : [
                0.9700495004653931,
                4.975857257843018,
                1.000000238418579
            ],
            "min" : [
                -2.7651116847991943,
                -1.302834153175354,
                -1.0000009536743164
            ],
            "type" : "VEC3"
        },
        {
            "bufferView" : 1,
            "componentType" : 5126,
            "count" : 82,
            "type" : "VEC3"
        },
        {
            "bufferView" : 2,
            "componentType" : 5126,
            "count" : 82,
            "type" : "VEC2"
        },
        {
            "bufferView" : 3,
            "componentType" : 5121,
            "count" : 82,
            "type" : "VEC4"
        },
        {
            "bufferView" : 4,
            "componentType" : 5126,
            "count" : 82,
            "type" : "VEC4"
        },
        {
            "bufferView" : 5,
            "componentType" : 5123,
            "count" : 84,
            "type" : "SCALAR"
        },
        {
            "bufferView" : 6,
            "componentType" : 5126,
            "count" : 3,
            "type" : "MAT4"
        }
    ],
    "bufferViews" : [
        {
            "buffer" : 0,
            "byteLength" : 984,
            "byteOffset" : 0
        },
        {
            "buffer" : 0,
            "byteLength" : 984,
            "byteOffset" : 984
        },
        {
            "buffer" : 0,
            "byteLength" : 656,
            "byteOffset" : 1968
        },
        {
            "buffer" : 0,
            "byteLength" : 328,
            "byteOffset" : 2624
        },
        {
            "buffer" : 0,
            "byteLength" : 1312,
            "byteOffset" : 2952
        },
        {
            "buffer" : 0,
            "byteLength" : 168,
            "byteOffset" : 4264
        },
        {
            "buffer" : 0,
            "byteLength" : 192,
            "byteOffset" : 4432
        }
    ],
    "buffers" : [
        {
            "byteLength" : 4624,
            "uri" : "IKTest.bin"
        }
    ]
}
