{
    "asset" : {
        "generator" : "Khronos glTF Blender I/O v1.8.19",
        "version" : "2.0"
    },
    "scene" : 0,
    "scenes" : [
        {
            "name" : "Scene",
            "nodes" : [
                3
            ]
        }
    ],
    "nodes" : [
        {
            "name" : "Bone2",
            "rotation" : [
                -0.6881537437438965,
                0.0017475550994277,
                -0.0018992498517036438,
                0.7255603671073914
            ],
            "scale" : [
                0.9999998807907104,
                1.0000001192092896,
                1.000000238418579
            ],
            "translation" : [
                1.5832483768463135e-08,
                1.000000238418579,
                7.895494746890108e-08
            ]
        },
        {
            "children" : [
                0
            ],
            "name" : "Bone",
            "rotation" : [
                -0.17357461154460907,
                -0.03469458594918251,
                0.0417281799018383,
                0.9833245277404785
            ],
            "scale" : [
                1,
                1.0000001192092896,
                1
            ]
        },
        {
            "mesh" : 0,
            "name" : "Cube",
            "skin" : 0
        },
        {
            "children" : [
                2,
                1
            ],
            "name" : "armature",
            "rotation" : [
                -0.9318354725837708,
                0,
                0,
                0.3628810942173004
            ],
            "scale" : [
                3.435253143310547,
                3.435253143310547,
                3.435253143310547
            ],
            "translation" : [
                0,
                3.599158525466919,
                1.4760913848876953
            ]
        }
    ],
    "materials" : [
        {
            "doubleSided" : true,
            "name" : "Material.001",
            "pbrMetallicRoughness" : {
                "baseColorFactor" : [
                    0.800000011920929,
                    0.800000011920929,
                    0.800000011920929,
                    1
                ],
                "metallicFactor" : 0,
                "roughnessFactor" : 0.4000000059604645
            }
        }
    ],
    "meshes" : [
        {
            "name" : "Cube.001",
            "primitives" : [
                {
                    "attributes" : {
                        "POSITION" : 0,
                        "NORMAL" : 1,
                        "TEXCOORD_0" : 2,
                        "JOINTS_0" : 3,
                        "WEIGHTS_0" : 4
                    },
                    "indices" : 5,
                    "material" : 0
                },
                {
                    "attributes" : {
                        "POSITION" : 6,
                        "NORMAL" : 7,
                        "TEXCOORD_0" : 8,
                        "JOINTS_0" : 9,
                        "WEIGHTS_0" : 10
                    },
                    "indices" : 11
                }
            ]
        }
    ],
    "skins" : [
        {
            "inverseBindMatrices" : 12,
            "joints" : [
                1,
                0
            ],
            "name" : "armature"
        }
    ],
    "accessors" : [
        {
            "bufferView" : 0,
            "componentType" : 5126,
            "count" : 36,
            "max" : [
                1.0810201168060303,
                4.1063151359558105,
                2.515899896621704
            ],
            "min" : [
                -1.4089481830596924,
                -1.1287379264831543,
                -1.3732962608337402
            ],
            "type" : "VEC3"
        },
        {
            "bufferView" : 1,
            "componentType" : 5126,
            "count" : 36,
            "type" : "VEC3"
        },
        {
            "bufferView" : 2,
            "componentType" : 5126,
            "count" : 36,
            "type" : "VEC2"
        },
        {
            "bufferView" : 3,
            "componentType" : 5121,
            "count" : 36,
            "type" : "VEC4"
        },
        {
            "bufferView" : 4,
            "componentType" : 5126,
            "count" : 36,
            "type" : "VEC4"
        },
        {
            "bufferView" : 5,
            "componentType" : 5123,
            "count" : 36,
            "type" : "SCALAR"
        },
        {
            "bufferView" : 6,
            "componentType" : 5126,
            "count" : 36,
            "max" : [
                1.1192182302474976,
                1.542737603187561,
                4.003219127655029
            ],
            "min" : [
                -1.4075032472610474,
                -2.113679885864258,
                -1.3454012870788574
            ],
            "type" : "VEC3"
        },
        {
            "bufferView" : 7,
            "componentType" : 5126,
            "count" : 36,
            "type" : "VEC3"
        },
        {
            "bufferView" : 8,
            "componentType" : 5126,
            "count" : 36,
            "type" : "VEC2"
        },
        {
            "bufferView" : 9,
            "componentType" : 5121,
            "count" : 36,
            "type" : "VEC4"
        },
        {
            "bufferView" : 10,
            "componentType" : 5126,
            "count" : 36,
            "type" : "VEC4"
        },
        {
            "bufferView" : 11,
            "componentType" : 5123,
            "count" : 36,
            "type" : "SCALAR"
        },
        {
            "bufferView" : 12,
            "componentType" : 5126,
            "count" : 2,
            "type" : "MAT4"
        }
    ],
    "bufferViews" : [
        {
            "buffer" : 0,
            "byteLength" : 432,
            "byteOffset" : 0
        },
        {
            "buffer" : 0,
            "byteLength" : 432,
            "byteOffset" : 432
        },
        {
            "buffer" : 0,
            "byteLength" : 288,
            "byteOffset" : 864
        },
        {
            "buffer" : 0,
            "byteLength" : 144,
            "byteOffset" : 1152
        },
        {
            "buffer" : 0,
            "byteLength" : 576,
            "byteOffset" : 1296
        },
        {
            "buffer" : 0,
            "byteLength" : 72,
            "byteOffset" : 1872
        },
        {
            "buffer" : 0,
            "byteLength" : 432,
            "byteOffset" : 1944
        },
        {
            "buffer" : 0,
            "byteLength" : 432,
            "byteOffset" : 2376
        },
        {
            "buffer" : 0,
            "byteLength" : 288,
            "byteOffset" : 2808
        },
        {
            "buffer" : 0,
            "byteLength" : 144,
            "byteOffset" : 3096
        },
        {
            "buffer" : 0,
            "byteLength" : 576,
            "byteOffset" : 3240
        },
        {
            "buffer" : 0,
            "byteLength" : 72,
            "byteOffset" : 3816
        },
        {
            "buffer" : 0,
            "byteLength" : 128,
            "byteOffset" : 3888
        }
    ],
    "buffers" : [
        {
            "byteLength" : 4016,
            "uri" : "IKTest.bin"
        }
    ]
}
